<mxfile host="app.diagrams.net" modified="2023-06-13T18:52:57.385Z" agent="Mozilla/5.0 (Macintosh; Intel Mac OS X 10.15; rv:109.0) Gecko/20100101 Firefox/114.0" version="21.3.8" etag="L8xtqXjWtcONAac5YMTv" type="github">
  <diagram name="Page-1" id="k-KWp8X2Q6wuh9A9ZBVA">
    <mxGraphModel>
      <root>
        <mxCell id="0" />
        <mxCell id="1" parent="0" />
      </root>
    </mxGraphModel>
  </diagram>
</mxfile>
